<?xml version="1.0" standalone="no"?>
<!DOCTYPE svg PUBLIC "-//W3C//DTD SVG 20010904//EN"
 "http://www.w3.org/TR/2001/REC-SVG-20010904/DTD/svg10.dtd">
<svg version="1.0" xmlns="http://www.w3.org/2000/svg"
 width="200.000000pt" height="175.000000pt" viewBox="0 0 200.000000 175.000000"
 preserveAspectRatio="xMidYMid meet">

<g transform="translate(0.000000,175.000000) scale(0.100000,-0.100000)"
fill="#000000" stroke="none">
<path d="M342 1690 c-56 -35 -98 -130 -56 -130 48 0 114 75 114 129 0 26 -16
27 -58 1z"/>
<path d="M710 1360 l0 -300 50 0 50 0 0 99 0 98 93 5 c130 7 187 38 222 121
28 68 14 169 -33 220 -42 47 -83 57 -237 57 l-145 0 0 -300z m299 196 c31 -29
44 -86 29 -131 -20 -59 -53 -77 -148 -83 l-80 -5 0 124 0 124 89 -5 c69 -4 94
-9 110 -24z"/>
<path d="M105 1534 c-63 -33 -89 -70 -100 -145 -14 -95 41 -247 112 -309 39
-35 52 -36 118 -14 44 16 51 16 102 0 44 -14 60 -15 83 -6 29 12 82 78 104
131 13 30 12 32 -28 69 -39 37 -41 41 -41 99 0 53 3 63 31 93 17 18 29 39 27
46 -8 20 -79 52 -116 52 -18 0 -55 -7 -80 -16 -43 -15 -51 -15 -87 0 -51 20
-87 20 -125 0z"/>
<path d="M1275 1486 c-38 -16 -85 -70 -85 -97 0 -16 7 -19 40 -19 27 0 43 5
47 15 3 9 18 22 34 30 65 34 139 2 139 -60 l0 -33 -77 -7 c-150 -12 -203 -48
-203 -137 0 -43 5 -55 33 -83 44 -44 108 -55 173 -30 25 9 50 26 57 36 17 27
27 23 27 -11 0 -28 2 -30 40 -30 l40 0 0 174 0 174 -27 33 c-15 17 -42 38 -60
45 -41 18 -139 17 -178 0z m154 -322 c-67 -71 -186 -42 -165 41 7 29 25 36
111 44 l70 6 3 -34 c2 -24 -3 -40 -19 -57z"/>
<path d="M1585 1483 c3 -10 40 -111 81 -225 74 -203 75 -207 60 -242 -16 -38
-26 -45 -72 -50 -26 -3 -29 -7 -29 -37 0 -33 2 -34 40 -37 24 -1 54 5 75 15
60 31 60 32 211 456 l48 137 -48 0 -48 0 -53 -175 c-30 -96 -57 -175 -60 -175
-3 0 -15 35 -28 78 -13 42 -37 121 -54 175 l-31 97 -49 0 c-44 0 -49 -2 -43
-17z"/>
<path d="M235 817 c-22 -8 -54 -21 -71 -30 -31 -16 -124 -112 -124 -128 0 -9
89 -79 101 -79 4 0 10 9 14 19 10 32 81 89 127 102 49 13 119 0 151 -29 17
-15 21 -13 65 31 45 45 46 47 27 62 -68 55 -207 79 -290 52z"/>
<path d="M860 505 l0 -285 35 0 35 0 0 115 0 115 68 0 c86 0 134 14 176 50 44
39 60 79 54 139 -6 61 -36 103 -91 130 -36 18 -62 21 -160 21 l-117 0 0 -285z
m256 197 c54 -43 58 -100 10 -148 -33 -33 -36 -34 -115 -34 l-81 0 0 100 0
100 83 0 c63 0 87 -5 103 -18z"/>
<path d="M1335 603 c-34 -17 -65 -43 -65 -52 0 -4 14 -15 30 -25 30 -17 31
-17 61 8 63 53 169 13 169 -63 0 -18 -3 -19 -26 -11 -37 14 -129 12 -168 -4
-50 -21 -76 -60 -76 -116 0 -55 22 -89 74 -114 61 -29 122 -20 174 27 l22 20
0 -26 c0 -24 4 -27 36 -27 l36 0 -4 153 c-3 138 -5 155 -25 183 -13 17 -38 39
-57 48 -44 21 -141 20 -181 -1z m181 -204 c35 -29 -11 -101 -75 -120 -48 -14
-97 8 -107 48 -9 33 4 53 47 76 37 19 110 17 135 -4z"/>
<path d="M1677 463 c107 -244 101 -205 49 -316 l-45 -97 38 0 c37 0 38 2 63
63 15 34 69 160 121 280 l96 218 -41 -3 -40 -3 -56 -140 -56 -139 -14 34 c-8
19 -34 83 -59 143 l-45 107 -38 0 -39 0 66 -147z"/>
<path d="M330 503 l0 -63 90 0 90 0 -11 -27 c-46 -122 -220 -145 -313 -43 -20
22 -36 45 -36 50 0 17 -16 11 -64 -26 l-47 -36 17 -26 c48 -77 143 -135 238
-147 107 -14 230 38 287 121 35 51 61 147 57 206 l-3 43 -153 5 -152 5 0 -62z"/>
</g>
</svg>
